<?xml version="1.0" encoding="UTF-8"?>
<!DOCTYPE svg PUBLIC "-//W3C//DTD SVG 1.1//EN" "http://www.w3.org/Graphics/SVG/1.1/DTD/svg11.dtd">
<svg xmlns="http://www.w3.org/2000/svg" version="1.1" width="581px" height="419px" style="shape-rendering:geometricPrecision; text-rendering:geometricPrecision; image-rendering:optimizeQuality; fill-rule:evenodd; clip-rule:evenodd" xmlns:xlink="http://www.w3.org/1999/xlink">
<g><path style="opacity:0.096" fill="#292a2a" d="M 187.5,55.5 C 188.449,54.8476 189.615,54.5143 191,54.5C 193.008,54.3068 194.508,54.9735 195.5,56.5C 192.904,55.7347 190.237,55.4013 187.5,55.5 Z"/></g>
<g><path style="opacity:0.999" fill="#0d0f10" d="M 197.5,58.5 C 223.914,59.2749 241.747,71.9416 251,96.5C 254.009,112.662 252.342,128.329 246,143.5C 234.049,169.115 217.216,190.948 195.5,209C 183.444,218.777 170.944,227.944 158,236.5C 153.136,285.584 173.969,317.751 220.5,333C 264.856,338.828 296.523,321.661 315.5,281.5C 318.752,274.273 320.752,266.606 321.5,258.5C 321.666,251.825 321.5,245.158 321,238.5C 307.12,233.194 304.287,224.36 312.5,212C 320.642,206.831 328.142,207.664 335,214.5C 339.868,224.417 337.534,232.083 328,237.5C 327.5,244.826 327.334,252.159 327.5,259.5C 326.593,265.851 325.593,272.184 324.5,278.5C 314.533,309.257 294.199,329.757 263.5,340C 213.782,349.888 177.615,332.388 155,287.5C 149.251,271.34 146.917,254.673 148,237.5C 123.924,221.767 102.257,203.1 83,181.5C 81.6703,176.502 83.5036,174.336 88.5,175C 106.991,196.67 128.325,214.837 152.5,229.5C 182.298,211.412 207.298,188.079 227.5,159.5C 236.989,144.571 242.655,128.238 244.5,110.5C 240.983,83.4246 225.65,69.0913 198.5,67.5C 198.821,66.1825 199.154,64.8492 199.5,63.5C 198.813,61.8228 198.146,60.1561 197.5,58.5 Z"/></g>
<g><path style="opacity:1" fill="#7eb8cc" d="M 107.5,69.5 C 106.701,66.5701 106.368,63.5701 106.5,60.5C 106.833,59.8333 107.167,59.1667 107.5,58.5C 112.212,53.189 117.045,53.189 122,58.5C 125.233,69.6056 121.066,74.1056 109.5,72C 108.619,71.2917 107.953,70.4584 107.5,69.5 Z"/></g>
<g><path style="opacity:1" fill="#87c5db" d="M 187.5,55.5 C 190.237,55.4013 192.904,55.7347 195.5,56.5C 196.5,56.8333 197.167,57.5 197.5,58.5C 198.146,60.1561 198.813,61.8228 199.5,63.5C 199.154,64.8492 198.821,66.1825 198.5,67.5C 195.367,71.0778 191.367,72.4111 186.5,71.5C 181.357,68.4762 180.19,64.1429 183,58.5C 184.129,56.8588 185.629,55.8588 187.5,55.5 Z"/></g>
<g><path style="opacity:0.106" fill="#38484f" d="M 198.5,67.5 C 198.141,69.371 197.141,70.871 195.5,72C 192.304,72.8045 189.304,72.6378 186.5,71.5C 191.367,72.4111 195.367,71.0778 198.5,67.5 Z"/></g>
<g><path style="opacity:0.745" fill="#282929" d="M 107.5,58.5 C 107.167,59.1667 106.833,59.8333 106.5,60.5C 79.1458,61.3529 61.9791,75.0195 55,101.5C 53.3037,117.989 56.137,133.656 63.5,148.5C 63.3764,149.107 63.0431,149.44 62.5,149.5C 54.0688,133.44 51.2355,116.44 54,98.5C 58.9889,79.5113 70.8223,67.0113 89.5,61C 95.3988,59.4056 101.399,58.5723 107.5,58.5 Z"/></g>
<g><path style="opacity:1" fill="#96bacf" d="M 351.5,151.5 C 351.821,153.048 352.821,153.715 354.5,153.5C 354.5,155.167 354.5,156.833 354.5,158.5C 350.885,158.845 347.552,158.178 344.5,156.5C 343.073,154.852 342.24,152.852 342,150.5C 341.188,138.787 341.355,127.12 342.5,115.5C 345.372,114.217 348.205,114.217 351,115.5C 351.5,127.495 351.667,139.495 351.5,151.5 Z"/></g>
<g><path style="opacity:1" fill="#a8d5e8" d="M 363.5,157.5 C 362.167,157.5 361.5,156.833 361.5,155.5C 361.5,142.167 361.5,128.833 361.5,115.5C 363.5,115.5 365.5,115.5 367.5,115.5C 367.333,127.505 367.5,139.505 368,151.5C 371.505,152.503 373.005,154.837 372.5,158.5C 369.43,158.632 366.43,158.299 363.5,157.5 Z"/></g>
<g><path style="opacity:1" fill="#a6d2e5" d="M 273.5,117.5 C 274.449,122.74 274.782,128.073 274.5,133.5C 280.509,133.666 286.509,133.499 292.5,133C 293.469,128.263 293.803,123.43 293.5,118.5C 295.833,118.5 298.167,118.5 300.5,118.5C 300.5,131.833 300.5,145.167 300.5,158.5C 298.208,158.756 296.041,158.423 294,157.5C 293.501,151.509 293.334,145.509 293.5,139.5C 287.167,139.5 280.833,139.5 274.5,139.5C 274.666,145.509 274.499,151.509 274,157.5C 271.502,158.779 269.002,158.779 266.5,157.5C 266.333,144.163 266.5,130.829 267,117.5C 269.274,116.189 271.44,116.189 273.5,117.5 Z"/></g>
<g><path style="opacity:1" fill="#a5cfe1" d="M 450.5,157.5 C 443.283,158.702 436.116,158.702 429,157.5C 428.5,144.171 428.333,130.837 428.5,117.5C 436.039,116.222 443.705,116.388 451.5,118C 457.307,119.807 461.141,123.64 463,129.5C 463.667,135.167 463.667,140.833 463,146.5C 461.118,152.845 456.952,156.511 450.5,157.5 Z M 447.5,125.5 C 455.651,132.805 456.318,140.805 449.5,149.5C 445.548,150.272 441.548,150.605 437.5,150.5C 437.5,142.167 437.5,133.833 437.5,125.5C 440.833,125.5 444.167,125.5 447.5,125.5 Z"/></g>
<g><path style="opacity:0.424" fill="#75909b" d="M 428.5,117.5 C 428.333,130.837 428.5,144.171 429,157.5C 436.116,158.702 443.283,158.702 450.5,157.5C 450.082,158.222 449.416,158.722 448.5,159C 441.586,159.811 434.752,159.645 428,158.5C 427.173,144.66 427.339,130.994 428.5,117.5 Z"/></g>
<g><path style="opacity:0.306" fill="#5f696f" d="M 529.5,129.5 C 523.167,126.833 516.833,126.833 510.5,129.5C 511.058,128.21 512.058,127.377 513.5,127C 517.833,126.333 522.167,126.333 526.5,127C 527.942,127.377 528.942,128.21 529.5,129.5 Z"/></g>
<g><path style="opacity:1" fill="#95bccd" d="M 316.5,126.5 C 320.514,126.334 324.514,126.501 328.5,127C 330.286,127.785 331.786,128.951 333,130.5C 334.255,137.059 334.922,143.726 335,150.5C 338.527,152.453 339.361,155.287 337.5,159C 333.376,160.056 329.71,159.222 326.5,156.5C 321.034,160.473 315.534,160.473 310,156.5C 306.305,151.182 306.805,146.349 311.5,142C 315.321,140.168 319.321,138.834 323.5,138C 325.882,135.95 325.382,134.45 322,133.5C 319,134.833 316,136.167 313,137.5C 310.138,136.425 308.804,134.425 309,131.5C 311.426,129.548 313.926,127.881 316.5,126.5 Z M 323.5,144.5 C 324.5,144.5 325.5,144.5 326.5,144.5C 325.944,148.291 323.944,150.957 320.5,152.5C 317.754,151.904 316.92,150.237 318,147.5C 319.719,146.131 321.552,145.131 323.5,144.5 Z"/></g>
<g><path style="opacity:1" fill="#9cc4d6" d="M 385.5,126.5 C 403.8,125.307 410.633,133.64 406,151.5C 401.152,159.056 394.318,161.556 385.5,159C 381.623,157.157 378.79,154.324 377,150.5C 375.859,143.916 376.526,137.583 379,131.5C 381.326,129.934 383.492,128.268 385.5,126.5 Z M 389.5,134.5 C 397.975,135.776 400.475,140.443 397,148.5C 392.845,152.704 389.178,152.371 386,147.5C 385.333,144.5 385.333,141.5 386,138.5C 386.69,136.65 387.856,135.316 389.5,134.5 Z"/></g>
<g><path style="opacity:0.082" fill="#6f8692" d="M 447.5,125.5 C 444.167,125.5 440.833,125.5 437.5,125.5C 437.5,133.833 437.5,142.167 437.5,150.5C 441.548,150.605 445.548,150.272 449.5,149.5C 449.082,150.222 448.416,150.722 447.5,151C 443.848,151.499 440.182,151.665 436.5,151.5C 436.5,142.5 436.5,133.5 436.5,124.5C 440.371,124.185 444.038,124.518 447.5,125.5 Z"/></g>
<g><path style="opacity:1" fill="#9dc4d4" d="M 478.5,126.5 C 496.13,124.976 502.964,132.976 499,150.5C 494.606,158.836 487.772,161.669 478.5,159C 471.376,156.093 468.043,150.76 468.5,143C 468.166,135.151 471.5,129.651 478.5,126.5 Z M 482.5,134.5 C 485.923,134.128 488.423,135.461 490,138.5C 490.667,141.5 490.667,144.5 490,147.5C 486.775,152.387 483.108,152.72 479,148.5C 476.242,142.636 477.408,137.969 482.5,134.5 Z"/></g>
<g><path style="opacity:1" fill="#99bfcf" d="M 529.5,129.5 C 533.881,133.638 533.048,136.638 527,138.5C 519.879,132.124 515.379,133.624 513.5,143C 513.82,145.799 514.82,148.299 516.5,150.5C 518.098,151.485 519.765,151.651 521.5,151C 523.677,149.485 525.844,147.985 528,146.5C 534.655,148.833 535.155,152.333 529.5,157C 511.199,162.716 503.033,155.883 505,136.5C 505.907,133.428 507.74,131.095 510.5,129.5C 516.833,126.833 523.167,126.833 529.5,129.5 Z"/></g>
<g><path style="opacity:0.582" fill="#6a8089" d="M 266.5,157.5 C 269.002,158.779 271.502,158.779 274,157.5C 274.499,151.509 274.666,145.509 274.5,139.5C 280.833,139.5 287.167,139.5 293.5,139.5C 293.334,145.509 293.501,151.509 294,157.5C 296.041,158.423 298.208,158.756 300.5,158.5C 300.5,145.167 300.5,131.833 300.5,118.5C 298.167,118.5 295.833,118.5 293.5,118.5C 293.803,123.43 293.469,128.263 292.5,133C 286.509,133.499 280.509,133.666 274.5,133.5C 274.782,128.073 274.449,122.74 273.5,117.5C 275.131,122.1 276.131,127.1 276.5,132.5C 281.435,131.552 286.435,131.219 291.5,131.5C 291.173,126.786 291.507,122.12 292.5,117.5C 295.366,116.205 298.199,116.205 301,117.5C 301.5,131.496 301.667,145.496 301.5,159.5C 298.428,159.817 295.428,159.484 292.5,158.5C 291.546,152.896 291.212,147.229 291.5,141.5C 286.167,140.167 280.833,140.167 275.5,141.5C 275.666,147.176 275.499,152.843 275,158.5C 273.6,159.116 272.1,159.449 270.5,159.5C 268.667,159.415 267.334,158.748 266.5,157.5 Z"/></g>
<g><path style="opacity:1" fill="#0b0c0d" d="M 106.5,60.5 C 106.368,63.5701 106.701,66.5701 107.5,69.5C 103.802,67.494 99.8015,66.994 95.5,68C 70.1121,76.394 58.9454,93.894 62,120.5C 64.867,135.354 70.5337,149.021 79,161.5C 84.4462,162.806 89.9462,162.806 95.5,161.5C 98,156.5 100.5,151.5 103,146.5C 104.884,144.424 107.051,144.09 109.5,145.5C 113.313,154.948 117.313,164.281 121.5,173.5C 126.813,162.07 131.646,150.403 136,138.5C 139.212,134.876 142.212,135.209 145,139.5C 147.077,147.496 149.91,155.162 153.5,162.5C 163.149,163.332 172.816,163.832 182.5,164C 187.347,166.186 187.68,168.852 183.5,172C 171.833,172.667 160.167,172.667 148.5,172C 145.28,165.721 142.447,159.221 140,152.5C 135.125,164.132 130.459,175.799 126,187.5C 121.856,192.807 118.523,192.141 116,185.5C 112.704,176.853 109.371,168.186 106,159.5C 104.576,163.793 102.409,167.626 99.5,171C 84.8333,171.667 70.1667,171.667 55.5,171C 51.7446,168.451 51.7446,165.784 55.5,163C 60.1667,162.667 64.8333,162.333 69.5,162C 66.7745,158.049 64.4411,153.882 62.5,149.5C 63.0431,149.44 63.3764,149.107 63.5,148.5C 56.137,133.656 53.3037,117.989 55,101.5C 61.9791,75.0195 79.1458,61.3529 106.5,60.5 Z"/></g>
<g><path style="opacity:0.855" fill="#89aebe" d="M 363.5,157.5 C 366.43,158.299 369.43,158.632 372.5,158.5C 373.005,154.837 371.505,152.503 368,151.5C 367.5,139.505 367.333,127.505 367.5,115.5C 365.5,115.5 363.5,115.5 361.5,115.5C 361.5,128.833 361.5,142.167 361.5,155.5C 360.345,152.737 359.678,149.737 359.5,146.5C 360.404,135.855 360.737,125.188 360.5,114.5C 363.167,114.5 365.833,114.5 368.5,114.5C 368.333,126.505 368.5,138.505 369,150.5C 370.333,151.167 371.667,151.833 373,152.5C 373.497,154.81 373.663,157.143 373.5,159.5C 371.856,159.286 370.356,159.62 369,160.5C 366.791,160.011 364.958,159.011 363.5,157.5 Z"/></g>
<g><path style="opacity:0.345" fill="#718c9f" d="M 351.5,151.5 C 352.822,151.33 353.989,151.663 355,152.5C 357.449,156.611 356.282,159.277 351.5,160.5C 348.477,160.185 346.144,158.852 344.5,156.5C 347.552,158.178 350.885,158.845 354.5,158.5C 354.5,156.833 354.5,155.167 354.5,153.5C 352.821,153.715 351.821,153.048 351.5,151.5 Z"/></g>
<g><path style="opacity:1" fill="#7dc6df" d="M 331.5,260.5 C 330.432,259.566 329.099,259.232 327.5,259.5C 327.334,252.159 327.5,244.826 328,237.5C 337.534,232.083 339.868,224.417 335,214.5C 328.142,207.664 320.642,206.831 312.5,212C 304.287,224.36 307.12,233.194 321,238.5C 321.5,245.158 321.666,251.825 321.5,258.5C 319.283,259.369 316.95,259.702 314.5,259.5C 302.791,256.396 294.291,249.396 289,238.5C 283.579,223.542 285.913,209.875 296,197.5C 314.346,181.506 332.68,181.506 351,197.5C 364.909,214.852 364.909,232.185 351,249.5C 345.462,254.853 338.962,258.519 331.5,260.5 Z"/></g>
<g><path style="opacity:0.999" fill="#7dc6df" d="M 318.5,215.5 C 325.622,213.885 329.955,216.552 331.5,223.5C 328.446,231.866 323.28,233.533 316,228.5C 313.458,223.438 314.292,219.105 318.5,215.5 Z"/></g>
<g><path style="opacity:0.202" fill="#43545c" d="M 327.5,259.5 C 329.099,259.232 330.432,259.566 331.5,260.5C 330.5,260.5 329.5,260.5 328.5,260.5C 328.438,266.915 327.105,272.915 324.5,278.5C 325.593,272.184 326.593,265.851 327.5,259.5 Z"/></g>
<g><path style="opacity:0.094" fill="#3c4f58" d="M 321.5,258.5 C 320.752,266.606 318.752,274.273 315.5,281.5C 317.31,274.593 318.643,267.593 319.5,260.5C 317.585,260.784 315.919,260.451 314.5,259.5C 316.95,259.702 319.283,259.369 321.5,258.5 Z"/></g>
</svg>
