<svg xmlns="http://www.w3.org/2000/svg" width="28" height="28" viewBox="0 0 431 291" version="1.1"><path d="M 168.250 30.689 C 169.213 30.941, 170.787 30.941, 171.750 30.689 C 172.713 30.438, 171.925 30.232, 170 30.232 C 168.075 30.232, 167.287 30.438, 168.250 30.689 M 186.762 30.707 C 188.006 30.946, 189.806 30.937, 190.762 30.687 C 191.718 30.437, 190.700 30.241, 188.500 30.252 C 186.300 30.263, 185.518 30.468, 186.762 30.707 M 217 38.449 C 217 38.724, 218.350 39.647, 220 40.500 C 221.650 41.353, 223 41.826, 223 41.551 C 223 41.276, 221.650 40.353, 220 39.500 C 218.350 38.647, 217 38.174, 217 38.449 M 171.264 40.718 C 172.784 40.947, 175.034 40.941, 176.264 40.704 C 177.494 40.467, 176.250 40.279, 173.500 40.286 C 170.750 40.294, 169.744 40.488, 171.264 40.718 M 184.264 40.718 C 185.784 40.947, 188.034 40.941, 189.264 40.704 C 190.494 40.467, 189.250 40.279, 186.500 40.286 C 183.750 40.294, 182.744 40.488, 184.264 40.718 M 116.473 56.250 L 109.500 63.500 116.750 56.527 C 123.484 50.050, 124.457 49, 123.723 49 C 123.571 49, 120.308 52.263, 116.473 56.250 M 132.360 55.373 C 129.137 57.778, 124.700 61.705, 122.500 64.099 C 119.348 67.528, 119.772 67.274, 124.500 62.900 C 127.800 59.847, 132.412 56.086, 134.750 54.542 C 138.611 51.991, 139.691 51, 138.610 51 C 138.396 51, 135.583 52.968, 132.360 55.373 M 241 55.500 C 242.866 57.425, 244.617 59, 244.892 59 C 245.167 59, 243.866 57.425, 242 55.500 C 240.134 53.575, 238.383 52, 238.108 52 C 237.833 52, 239.134 53.575, 241 55.500 M 224.500 54.635 C 225.050 55.119, 227.073 56.862, 228.996 58.508 L 232.493 61.500 229.996 58.658 C 228.623 57.095, 226.600 55.353, 225.500 54.786 C 224.400 54.219, 223.950 54.151, 224.500 54.635 M 247.957 63.750 C 249.815 66.088, 251.515 68, 251.735 68 C 252.442 68, 248.157 62.373, 246.337 60.911 C 245.370 60.135, 246.100 61.413, 247.957 63.750 M 107 67 C 105.825 68.650, 105.089 70, 105.364 70 C 105.639 70, 106.825 68.650, 108 67 C 109.175 65.350, 109.911 64, 109.636 64 C 109.361 64, 108.175 65.350, 107 67 M 239 68.500 C 240.292 69.875, 241.574 71, 241.849 71 C 242.124 71, 241.292 69.875, 240 68.500 C 238.708 67.125, 237.426 66, 237.151 66 C 236.876 66, 237.708 67.125, 239 68.500 M 113.202 75.750 C 110.254 79.943, 107.785 85.118, 108.426 85.760 C 108.742 86.075, 109 85.894, 109 85.358 C 109 84.821, 110.542 81.821, 112.427 78.691 C 116.045 72.684, 116.456 71.123, 113.202 75.750 M 270.728 76.722 C 272.503 76.943, 275.653 76.946, 277.728 76.730 C 279.802 76.513, 278.350 76.333, 274.500 76.328 C 270.650 76.324, 268.952 76.501, 270.728 76.722 M 289.500 79 C 292.249 80.181, 293.828 80.181, 292 79 C 291.175 78.467, 289.825 78.055, 289 78.086 C 288.011 78.122, 288.181 78.433, 289.500 79 M 249.500 85 C 250.894 87.750, 252.589 89.993, 253.267 89.985 C 254.138 89.974, 254.173 89.754, 253.384 89.235 C 252.771 88.831, 251.299 86.588, 250.114 84.250 C 248.929 81.912, 247.736 80, 247.463 80 C 247.190 80, 248.106 82.250, 249.500 85 M 272.264 86.718 C 273.784 86.947, 276.034 86.941, 277.264 86.704 C 278.494 86.467, 277.250 86.279, 274.500 86.286 C 271.750 86.294, 270.744 86.488, 272.264 86.718 M 313 92.500 C 314.866 94.425, 316.617 96, 316.892 96 C 317.167 96, 315.866 94.425, 314 92.500 C 312.134 90.575, 310.383 89, 310.108 89 C 309.833 89, 311.134 90.575, 313 92.500 M 292.083 90.365 C 292.313 90.565, 293.625 91.265, 295 91.920 C 297.357 93.042, 297.389 93.022, 295.559 91.555 C 293.966 90.279, 290.711 89.164, 292.083 90.365 M 305.500 100 C 308.209 102.750, 310.650 105, 310.925 105 C 311.200 105, 309.209 102.750, 306.500 100 C 303.791 97.250, 301.350 95, 301.075 95 C 300.800 95, 302.791 97.250, 305.500 100 M 318.511 99.377 C 319.457 100.820, 320.419 102, 320.650 102 C 321.374 102, 319.045 98.146, 317.891 97.433 C 317.287 97.059, 317.566 97.934, 318.511 99.377 M 91.370 118 C 91.370 123.775, 91.535 126.138, 91.737 123.250 C 91.939 120.362, 91.939 115.638, 91.737 112.750 C 91.535 109.862, 91.370 112.225, 91.370 118 M 101.365 118.500 C 101.368 124, 101.536 126.122, 101.738 123.216 C 101.941 120.311, 101.939 115.811, 101.734 113.216 C 101.528 110.622, 101.363 113, 101.365 118.500 M 314.080 111 C 315.538 114.061, 316 114.628, 316 113.358 C 316 112.821, 315.300 111.509, 314.445 110.441 C 312.978 108.611, 312.958 108.643, 314.080 111 M 316.086 115.500 C 316.190 117.394, 317.856 120.584, 317.914 119 C 317.945 118.175, 317.533 116.825, 317 116 C 316.467 115.175, 316.055 114.950, 316.086 115.500 M 319.079 128.128 C 319.036 129.023, 319.788 130.373, 320.750 131.128 C 322.271 132.320, 322.354 132.303, 321.384 131 C 320.771 130.175, 320.019 128.825, 319.713 128 C 319.249 126.745, 319.145 126.766, 319.079 128.128 M 102.195 132.500 C 102.215 134.150, 102.439 134.704, 102.693 133.731 C 102.947 132.758, 102.930 131.408, 102.656 130.731 C 102.382 130.054, 102.175 130.850, 102.195 132.500 M 346.500 131.656 C 347.050 132.194, 350.425 135.292, 354 138.540 C 359.777 143.788, 360 143.910, 356 139.641 C 353.525 136.999, 350.150 133.901, 348.500 132.757 C 346.850 131.613, 345.950 131.117, 346.500 131.656 M 82.453 138.250 L 78.500 142.500 82.750 138.547 C 86.702 134.871, 87.460 134, 86.703 134 C 86.540 134, 84.627 135.912, 82.453 138.250 M 332.083 135.373 C 333.112 136.294, 339 138.999, 339 138.551 C 339 137.975, 333.456 135, 332.383 135 C 331.989 135, 331.854 135.168, 332.083 135.373 M 95.861 140.059 L 93.500 142.119 96.250 140.444 C 97.763 139.523, 99 138.597, 99 138.385 C 99 137.604, 98.165 138.050, 95.861 140.059 M 347.500 146 C 350.209 148.750, 352.650 151, 352.925 151 C 353.200 151, 351.209 148.750, 348.500 146 C 345.791 143.250, 343.350 141, 343.075 141 C 342.800 141, 344.791 143.250, 347.500 146 M 88.924 145.750 L 86.500 148.500 89.250 146.076 C 90.763 144.742, 92 143.505, 92 143.326 C 92 142.541, 91.190 143.180, 88.924 145.750 M 75.232 146.750 C 72.643 150.489, 71.802 152, 72.308 152 C 72.542 152, 73.925 150.200, 75.381 148 C 78.340 143.529, 78.211 142.448, 75.232 146.750 M 202.728 144.722 C 204.503 144.943, 207.653 144.946, 209.728 144.730 C 211.802 144.513, 210.350 144.333, 206.500 144.328 C 202.650 144.324, 200.952 144.501, 202.728 144.722 M 226.728 144.722 C 228.503 144.943, 231.653 144.946, 233.728 144.730 C 235.802 144.513, 234.350 144.333, 230.500 144.328 C 226.650 144.324, 224.952 144.501, 226.728 144.722 M 82.247 154.250 C 80.754 156.121, 77.803 162.137, 78.189 162.522 C 78.374 162.708, 79.709 160.641, 81.154 157.930 C 83.791 152.986, 84.107 151.919, 82.247 154.250 M 361.195 172.500 C 361.215 174.150, 361.439 174.704, 361.693 173.731 C 361.947 172.758, 361.930 171.408, 361.656 170.731 C 361.382 170.054, 361.175 170.850, 361.195 172.500 M 65.355 179.500 C 65.352 184.450, 65.521 186.601, 65.731 184.280 C 65.940 181.959, 65.943 177.909, 65.736 175.280 C 65.530 172.651, 65.358 174.550, 65.355 179.500 M 75.252 175.500 C 75.263 177.700, 75.468 178.482, 75.707 177.238 C 75.946 175.994, 75.937 174.194, 75.687 173.238 C 75.437 172.282, 75.241 173.300, 75.252 175.500 M 222.924 174.750 L 220.500 177.500 223.250 175.076 C 225.820 172.810, 226.459 172, 225.674 172 C 225.495 172, 224.258 173.238, 222.924 174.750 M 213.924 175.250 C 215.258 176.762, 217.283 177.948, 218.424 177.884 C 220.436 177.772, 220.438 177.753, 218.500 177.284 C 217.400 177.018, 215.375 175.833, 214 174.650 L 211.500 172.500 213.924 175.250 M 75.272 184 C 75.272 186.475, 75.467 187.488, 75.706 186.250 C 75.944 185.012, 75.944 182.988, 75.706 181.750 C 75.467 180.512, 75.272 181.525, 75.272 184 M 371.195 188.500 C 371.215 190.150, 371.439 190.704, 371.693 189.731 C 371.947 188.758, 371.930 187.408, 371.656 186.731 C 371.382 186.054, 371.175 186.850, 371.195 188.500 M 369.571 195.571 C 369.204 197.037, 369.096 198.429, 369.331 198.665 C 369.567 198.900, 370.061 197.894, 370.429 196.429 C 370.796 194.963, 370.904 193.571, 370.669 193.335 C 370.433 193.100, 369.939 194.106, 369.571 195.571 M 353.511 206.623 C 352.566 208.066, 352.287 208.941, 352.891 208.567 C 354.045 207.854, 356.374 204, 355.650 204 C 355.419 204, 354.457 205.180, 353.511 206.623 M 307.250 209.689 C 308.212 209.941, 309.788 209.941, 310.750 209.689 C 311.712 209.438, 310.925 209.232, 309 209.232 C 307.075 209.232, 306.288 209.438, 307.250 209.689 M 319.221 224.187 L 319.442 239.500 319.748 224.750 L 320.053 210 322.527 210 L 325 210 325 223.531 C 325 234.637, 325.269 237.166, 326.500 237.638 C 327.325 237.955, 328 239.066, 328 240.107 C 328 242.258, 325.177 242.632, 321.684 240.945 C 319.540 239.909, 319.536 239.919, 321.499 241.487 C 324.616 243.978, 328.434 243.071, 328.816 239.750 C 329.040 237.805, 328.683 237, 327.595 237 C 326.298 237, 326.013 234.837, 325.778 223.250 L 325.500 209.500 322.250 209.187 L 319 208.873 319.221 224.187 M 88.958 214.250 C 93.102 218.665, 94 219.459, 94 218.708 C 94 218.548, 91.862 216.410, 89.250 213.958 L 84.500 209.500 88.958 214.250 M 284.500 211.506 C 286.836 212.321, 293 212.533, 293 211.799 C 293 211.360, 290.863 211.036, 288.250 211.079 C 285.637 211.122, 283.950 211.315, 284.500 211.506 M 82.500 222 C 85.209 224.750, 87.650 227, 87.925 227 C 88.200 227, 86.209 224.750, 83.500 222 C 80.791 219.250, 78.350 217, 78.075 217 C 77.800 217, 79.791 219.250, 82.500 222 M 95.433 219.891 C 96.146 221.045, 100 223.374, 100 222.650 C 100 222.419, 98.820 221.457, 97.377 220.511 C 95.934 219.566, 95.059 219.287, 95.433 219.891 M 115.750 228.706 C 116.987 228.944, 119.013 228.944, 120.250 228.706 C 121.487 228.467, 120.475 228.272, 118 228.272 C 115.525 228.272, 114.513 228.467, 115.750 228.706 M 298.573 231 C 298.941 232.375, 299.659 234.175, 300.169 235 C 300.813 236.042, 300.892 235.737, 300.427 234 C 300.059 232.625, 299.341 230.825, 298.831 230 C 298.187 228.958, 298.108 229.263, 298.573 231 M 95 231.490 C 95 232.175, 101.123 235.210, 101.580 234.753 C 101.797 234.536, 100.406 233.610, 98.487 232.695 C 96.569 231.781, 95 231.239, 95 231.490 M 313.250 237.305 C 315.788 239.358, 315.417 241.794, 312.488 242.305 C 310.187 242.707, 310.208 242.733, 312.738 242.622 C 316.437 242.459, 317.167 238.643, 313.811 237.012 C 311.737 236.005, 311.679 236.035, 313.250 237.305" stroke="none" fill="#5bc0de" fill-rule="evenodd"/><path d="M 167.814 31.078 C 130.411 36.565, 101.108 63.702, 93.418 99.976 C 92.657 103.564, 92.027 112.237, 92.017 119.250 C 92.008 126.326, 91.591 132, 91.081 132 C 89.107 132, 79.045 142.292, 75.102 148.343 C 68.856 157.930, 66.738 164.741, 66.211 176.925 C 65.404 195.583, 70.164 208.127, 82.982 221.122 C 90.730 228.978, 96.618 232.639, 107.500 236.369 C 113.299 238.357, 115.906 238.437, 185.250 238.750 L 257 239.075 257 234.063 L 257 229.050 184.250 228.775 L 111.500 228.500 103.668 224.760 C 89.695 218.089, 78.951 204.703, 75.940 190.219 C 74.348 182.559, 75.269 169.880, 77.927 162.857 C 81.487 153.455, 89.690 143.740, 98.981 137.923 C 101.499 136.346, 101.500 136.342, 101.529 120.423 C 101.551 108.452, 101.987 102.968, 103.287 98.326 C 109.649 75.605, 123.724 58.573, 144.500 48.457 C 165.437 38.263, 186.302 37.155, 207.555 45.106 L 213 47.144 213 96.072 L 213 145 206.200 145 C 193.975 145, 193.983 147.929, 206.250 164.218 C 218.945 181.075, 218.495 181.097, 232.034 162.954 C 243.018 148.236, 242.796 145, 230.800 145 L 224 145 224 99.465 C 224 47.138, 222.854 51.134, 234.500 62.851 C 238.546 66.921, 243.708 73.609, 246.731 78.697 C 253.359 89.850, 253.767 90.309, 256.369 89.546 C 257.541 89.202, 261.650 88.226, 265.500 87.377 C 289.622 82.057, 314.362 98.768, 318.910 123.454 C 319.514 126.728, 320.409 129.809, 320.899 130.299 C 321.390 130.790, 324.775 132.234, 328.422 133.508 C 349.180 140.762, 362.091 158.359, 362.150 179.480 C 362.176 188.868, 360.963 194.149, 356.960 202.080 C 353.723 208.492, 345.535 217.888, 340.441 221.037 C 337.202 223.039, 337 223.482, 337 228.607 L 337 234.051 339.792 232.608 C 349.062 227.814, 359.456 217.522, 364.867 207.779 C 370.932 196.857, 373.221 181.396, 370.609 169 C 368.096 157.079, 362.952 147.734, 354.096 139 C 346.851 131.855, 343.568 129.717, 332.750 125.099 C 329.328 123.638, 328 122.508, 328 121.058 C 328 117.456, 323.203 106.189, 319.092 100.135 C 312.092 89.827, 302.357 82.944, 289.141 78.958 C 282.930 77.085, 280.355 76.832, 272.641 77.337 C 267.613 77.665, 262.360 78.208, 260.966 78.543 C 258.672 79.093, 257.917 78.360, 253.011 70.825 C 234.342 42.151, 200.371 26.302, 167.814 31.078 M 306.156 224.348 C 306.533 240.087, 307.180 242, 312.122 242 C 314.279 242, 315 241.526, 315 240.107 C 315 239.066, 314.325 237.955, 313.500 237.638 C 312.269 237.166, 312 234.637, 312 223.531 L 312 210 308.906 210 L 305.812 210 306.156 224.348 M 320 224.965 C 320 238.737, 320.154 240.012, 321.934 240.965 C 325.087 242.652, 328 242.240, 328 240.107 C 328 239.066, 327.325 237.955, 326.500 237.638 C 325.269 237.166, 325 234.637, 325 223.531 L 325 210 322.500 210 L 320 210 320 224.965 M 279.359 226.969 L 274.219 242 277.032 242 C 279.360 242, 280.044 241.397, 281 238.500 L 282.155 235 288.433 235 C 294.659 235, 294.718 235.027, 295.637 238.250 C 296.351 240.754, 297.188 241.573, 299.282 241.816 C 300.777 241.990, 301.990 241.765, 301.978 241.316 C 301.966 240.867, 299.772 234.200, 297.101 226.500 L 292.245 212.500 288.372 212.219 L 284.500 211.937 279.359 226.969 M 287.485 219.250 C 285.977 223.422, 284 229.307, 284 229.626 C 284 229.832, 285.995 230, 288.434 230 L 292.869 230 290.843 224 C 288.752 217.810, 288.258 217.112, 287.485 219.250" stroke="none" fill="#5bc0de" fill-rule="evenodd"/></svg>