<?xml version="1.0" encoding="UTF-8"?>
<!DOCTYPE svg PUBLIC "-//W3C//DTD SVG 1.1//EN" "http://www.w3.org/Graphics/SVG/1.1/DTD/svg11.dtd">
<svg xmlns="http://www.w3.org/2000/svg" version="1.1" width="150px" height="150px" style="shape-rendering:geometricPrecision; text-rendering:geometricPrecision; image-rendering:optimizeQuality; fill-rule:evenodd; clip-rule:evenodd" xmlns:xlink="http://www.w3.org/1999/xlink">
<g><path style="opacity:1" fill="#fefefe" d="M -0.5,-0.5 C 639.5,-0.5 1279.5,-0.5 1919.5,-0.5C 1919.5,359.5 1919.5,719.5 1919.5,1079.5C 1279.5,1079.5 639.5,1079.5 -0.5,1079.5C -0.5,719.5 -0.5,359.5 -0.5,-0.5 Z"/></g>
<g><path style="opacity:1" fill="#919191" d="M 742.5,419.5 C 887.167,419.333 1031.83,419.5 1176.5,420C 1188,423.5 1195.5,431 1199,442.5C 1199.67,496.167 1199.67,549.833 1199,603.5C 1195.93,615.568 1188.43,623.401 1176.5,627C 1109.17,627.333 1041.83,627.667 974.5,628C 969.628,638.244 964.628,648.41 959.5,658.5C 954.372,648.41 949.372,638.244 944.5,628C 876.109,627.99 807.776,627.323 739.5,626C 729.072,621.905 722.572,614.405 720,603.5C 719.333,549.833 719.333,496.167 720,442.5C 723.71,430.958 731.21,423.291 742.5,419.5 Z"/></g>
</svg>
