<?xml version="1.0" encoding="UTF-8"?>
<svg version="1.1" xmlns="http://www.w3.org/2000/svg" width="1920" height="1080">
<path d="M0 0 C633.6 0 1267.2 0 1920 0 C1920 356.4 1920 712.8 1920 1080 C1286.4 1080 652.8 1080 0 1080 C0 723.6 0 367.2 0 0 Z " fill="#FEFEFE" transform="translate(0,0)"/>
<path d="M0 0 C13.1267198 1.04180316 22.99866074 5.23632125 32.17578125 14.828125 C40.42117973 24.64491633 42.03587364 35.50635329 41 48 C39.57413571 56.68950631 37.09803933 65.19079918 33 73 C32.56945312 73.85722656 32.13890625 74.71445312 31.6953125 75.59765625 C25.83808222 86.8530366 18.17791014 96.36172554 9.44433594 105.48828125 C8.49403156 106.48292031 7.54918735 107.4828099 6.61035156 108.48828125 C0.67401525 114.83936512 -5.59907183 120.45722569 -12.5 125.75 C-13.2206665 126.30945313 -13.94133301 126.86890625 -14.68383789 127.4453125 C-17.93123828 129.91055677 -21.03577869 132.13090283 -24.75390625 133.82421875 C-28.38763213 135.5960355 -30.53107843 136.77886494 -33 140 C-36.76778087 155.11727302 -31.81616244 172.90741242 -24.6953125 186.21875 C-18.15538607 196.94784589 -10.25915983 204.59212428 0.875 210.25 C1.52275391 210.5795166 2.17050781 210.9090332 2.83789062 211.24853516 C11.51533215 215.46015337 19.65605514 217.53291993 29.3125 217.375 C30.23111816 217.36339844 31.14973633 217.35179687 32.09619141 217.33984375 C49.03356564 216.93451507 63.63855443 211.13006143 75.859375 199.2734375 C88.47230006 185.8779587 94.31575911 171.14340962 94.6875 152.875 C94.72166016 151.72773437 94.75582031 150.58046875 94.79101562 149.3984375 C94.87266424 146.59905626 94.94208092 143.79995551 95 141 C94.22140625 140.88527344 93.4428125 140.77054688 92.640625 140.65234375 C89.05003985 139.7653205 88.04260431 137.99095631 86 135 C84.4452331 131.89046621 84.71355563 129.43733239 85 126 C86.61320721 122.94642921 88.03060902 120.76166434 90.75 118.625 C94.26846253 117.6476493 97.4376209 117.21866035 101 118 C104.32255304 120.07500439 107.23284064 122.46568128 109 126 C109.68128376 132.81283762 109.68128376 132.81283762 107.953125 135.82421875 C106.17156722 137.98828747 104.52390368 139.73804816 102 141 C101.61171028 143.68625477 101.61171028 143.68625477 101.54296875 146.94921875 C101.48544434 148.18357666 101.42791992 149.41793457 101.36865234 150.68969727 C101.34003113 151.34334259 101.31140991 151.99698792 101.28192139 152.67044067 C100.22232644 175.30584076 93.58690204 190.99642937 77 207 C61.77838696 219.83538658 44.04571268 225.30570529 24.36767578 224.20703125 C6.80338633 222.67119732 -10.16705765 214.34432276 -21.69140625 200.95703125 C-27.25771993 194.16526715 -31.37865341 187.01345277 -35 179 C-35.34933594 178.37351562 -35.69867187 177.74703125 -36.05859375 177.1015625 C-37.39580263 174.11642401 -37.93889598 171.14693849 -38.5625 167.9375 C-38.70341064 167.24503174 -38.84432129 166.55256348 -38.98950195 165.83911133 C-39.73169214 161.84900824 -40.05270493 158.1676247 -39.8515625 154.109375 C-39.22022065 145.69011092 -39.22022065 145.69011092 -42.42724609 138.23583984 C-46.23133908 134.9282464 -50.56078275 132.54205233 -54.97753906 130.15136719 C-64.26891186 124.86187973 -72.23152721 116.31281129 -80 109 C-80.70511719 108.33742188 -81.41023437 107.67484375 -82.13671875 106.9921875 C-85.95964298 103.29365343 -89.20534619 99.54131244 -92 95 C-91.67 94.01 -91.34 93.02 -91 92 C-87.15139194 92.11553045 -85.35471743 93.37815979 -82.80078125 96.0625 C-81.62861158 97.36660364 -80.46630674 98.67962201 -79.3125 100 C-78.06295327 101.38167747 -76.81034436 102.76059176 -75.5546875 104.13671875 C-74.94592773 104.80493652 -74.33716797 105.4731543 -73.70996094 106.16162109 C-66.33919129 114.08593512 -57.64343087 120.54920417 -49 127 C-48.05125 127.73347656 -47.1025 128.46695313 -46.125 129.22265625 C-45.25875 129.87105469 -44.3925 130.51945313 -43.5 131.1875 C-42.7471875 131.75855469 -41.994375 132.32960938 -41.21875 132.91796875 C-39.04671905 134.19551035 -39.04671905 134.19551035 -36.5703125 133.89453125 C-23.1965173 129.24012532 -11.17736854 116.51829197 -1 107 C-0.0409375 106.10667969 0.918125 105.21335937 1.90625 104.29296875 C16.30661684 90.57844475 28.39893332 73.62107775 33 54 C33.16910889 53.38495605 33.33821777 52.76991211 33.51245117 52.13623047 C35.62910325 42.86196624 35.48297057 31.0930616 30.4140625 22.9375 C29.94742188 22.298125 29.48078125 21.65875 29 21 C28.61585938 20.4225 28.23171875 19.845 27.8359375 19.25 C22.43691193 11.90438697 13.5897736 8.2476961 4.875 6.59765625 C3.25528234 6.35927039 1.6279799 6.17318935 0 6 C0 4.02 0 2.04 0 0 Z " fill="#4A4747" transform="translate(864,434)"/>
<path d="M0 0 C6.59978319 5.22839967 11.07030272 12.50417015 12.31640625 20.8515625 C12.86936915 28.56846703 9.90621295 34.18767413 5.9921875 40.6796875 C5.6209375 41.30101562 5.2496875 41.92234375 4.8671875 42.5625 C1.3533923 47.49731531 -4.54331253 50.38313163 -10.0078125 52.6796875 C-11.3278125 52.6796875 -12.6478125 52.6796875 -14.0078125 52.6796875 C-14.14291503 49.76147287 -14.241943 46.84951098 -14.3203125 43.9296875 C-14.36220703 43.1046875 -14.40410156 42.2796875 -14.44726562 41.4296875 C-14.49460332 39.08173794 -14.47262849 36.98302176 -14.0078125 34.6796875 C-11.61328125 32.2890625 -11.61328125 32.2890625 -9.0078125 30.6796875 C-6.54863664 26.9909237 -6.19189313 23.9612446 -7.0078125 19.6796875 C-8.75231756 16.6576081 -10.84083414 14.26317668 -14.0078125 12.6796875 C-20.38467663 12.17593751 -20.38467663 12.17593751 -26.0078125 14.6796875 C-28.31248802 17.56053189 -28.97721348 19.43926661 -29.4453125 23.1171875 C-28.92065796 27.38937443 -27.80405075 29.43000521 -25.0078125 32.6796875 C-23.3578125 33.3396875 -21.7078125 33.9996875 -20.0078125 34.6796875 C-20.0078125 42.9296875 -20.0078125 51.1796875 -20.0078125 59.6796875 C-20.3378125 59.6796875 -20.6678125 59.6796875 -21.0078125 59.6796875 C-21.0078125 57.3696875 -21.0078125 55.0596875 -21.0078125 52.6796875 C-22.1421875 52.4734375 -23.2765625 52.2671875 -24.4453125 52.0546875 C-32.7277861 49.92909693 -38.49088986 45.16076924 -42.85546875 37.89453125 C-46.56259608 30.76930685 -47.31298031 22.77429139 -45.3203125 14.99609375 C-42.12179082 6.24014064 -37.41276348 1.01711209 -29.25390625 -3.375 C-19.3579918 -7.53988921 -8.79906292 -5.78615421 0 0 Z " fill="#89D8C5" transform="translate(979.0078125,540.3203125)"/>
<path d="M0 0 C24 0 24 0 31.8125 4.6875 C37.4608615 10.65862501 37.57925484 17.88985224 37.55566406 25.70092773 C37.34757154 31.00904054 36.36181782 34.76888939 33.19140625 39.140625 C21.63616327 48.94507359 16.72500603 46 0 46 C0 30.82 0 15.64 0 0 Z " fill="#A9D6E7" transform="translate(1081,468)"/>
<path d="M0 0 C0 1.98 0 3.96 0 6 C-0.67804687 6.08636719 -1.35609375 6.17273438 -2.0546875 6.26171875 C-12.5699161 7.84919786 -21.32285491 11.45393389 -28 20 C-34.46176963 29.91923598 -35.29295494 39.58052177 -33.50390625 51.23046875 C-31.22577415 60.97366647 -27.28398315 74.71601685 -20 82 C-17.98035801 82.07244053 -15.95832876 82.08377188 -13.9375 82.0625 C-11.978125 82.041875 -10.01875 82.02125 -8 82 C-5.69 77.71 -3.38 73.42 -1 69 C0.32 69 1.64 69 3 69 C6.25867807 75.91809972 9.45359766 82.78519336 12 90 C15.18717565 86.31725741 16.7306081 82.15733935 18.5 77.6875 C19.38315347 75.49118603 20.26749726 73.29549702 21.16015625 71.10302734 C21.71179354 69.72168909 22.24128356 68.33125925 22.74609375 66.93212891 C23.46875 65.01953125 23.46875 65.01953125 25 62 C27.1875 61.0625 27.1875 61.0625 29 61 C32.33549014 68.21136695 35.18478087 75.57094952 38 83 C46.25 83.33 54.5 83.66 63 84 C62.67 85.65 62.34 87.3 62 89 C52.76 89 43.52 89 34 89 C32.35 85.04 30.7 81.08 29 77 C28.34 76.01 27.68 75.02 27 74 C22.96435915 83.65206268 18.97811621 93.32412081 15 103 C13.35 103 11.7 103 10 103 C9.38511719 101.35451172 9.38511719 101.35451172 8.7578125 99.67578125 C8.21357114 98.22134314 7.66929867 96.76691667 7.125 95.3125 C6.85558594 94.59126953 6.58617187 93.87003906 6.30859375 93.12695312 C6.04433594 92.42119141 5.78007813 91.71542969 5.5078125 90.98828125 C5.25032227 90.29814941 4.99283203 89.60801758 4.72753906 88.89697266 C4.12509035 87.3261584 3.47135131 85.77512445 2.8046875 84.23046875 C2 82 2 82 2 78 C1.34 78 0.68 78 0 78 C-0.268125 78.9075 -0.53625 79.815 -0.8125 80.75 C-2.6471467 85.77113833 -2.6471467 85.77113833 -5 88 C-7.78572354 88.35599078 -10.17036591 88.46710804 -12.94921875 88.390625 C-13.72183548 88.38496521 -14.49445221 88.37930542 -15.29048157 88.37347412 C-17.75678629 88.35109327 -20.22163492 88.30089703 -22.6875 88.25 C-24.36000505 88.22993706 -26.03253289 88.21168592 -27.70507812 88.1953125 C-31.80394596 88.15122331 -35.90172617 88.08218675 -40 88 C-40 86.35 -40 84.7 -40 83 C-36.04 83 -32.08 83 -28 83 C-28.45890625 82.05640625 -28.9178125 81.1128125 -29.390625 80.140625 C-37.3286463 63.61768451 -45.34816045 44.77162205 -39.0390625 26.375 C-35.02376988 17.19718829 -27.86152838 8.75896895 -19 4 C-12.63735039 1.64858601 -6.83954819 -0.28841468 0 0 Z " fill="#474545" transform="translate(790,434)"/>
<path d="M0 0 C3.32255304 2.07500439 6.23284064 4.46568128 8 8 C8.68128376 14.81283762 8.68128376 14.81283762 6.953125 17.82421875 C5.17156722 19.98828747 3.52390368 21.73804816 1 23 C0.61171028 25.68625477 0.61171028 25.68625477 0.54296875 28.94921875 C0.45668213 30.80075562 0.45668213 30.80075562 0.36865234 32.68969727 C0.34003113 33.34334259 0.31140991 33.99698792 0.28192139 34.67044067 C-0.77767356 57.30584076 -7.41309796 72.99642937 -24 89 C-40.46007069 102.87969657 -58.06292717 106.591319 -79 106 C-79 105.67 -79 105.34 -79 105 C-73.06 105 -67.12 105 -61 105 C-61 104.34 -61 103.68 -61 103 C-61.95261719 103.02320313 -62.90523437 103.04640625 -63.88671875 103.0703125 C-65.14097656 103.08835937 -66.39523437 103.10640625 -67.6875 103.125 C-68.92886719 103.14820313 -70.17023437 103.17140625 -71.44921875 103.1953125 C-74.81237857 103.01032021 -76.9985587 102.45767895 -80 101 C-80 100.67 -80 100.34 -80 100 C-78.77925781 99.96261719 -77.55851563 99.92523437 -76.30078125 99.88671875 C-55.29340943 99.11382217 -37.83695937 94.75750064 -23 79 C-11.46667126 66.31333838 -6.65572306 51.74196161 -6.3125 34.875 C-6.27833984 33.72773437 -6.24417969 32.58046875 -6.20898438 31.3984375 C-6.12733576 28.59905626 -6.05791908 25.79995551 -6 23 C-6.77859375 22.88527344 -7.5571875 22.77054688 -8.359375 22.65234375 C-11.94996015 21.7653205 -12.95739569 19.99095631 -15 17 C-16.5547669 13.89046621 -16.28644437 11.43733239 -16 8 C-14.38679279 4.94642921 -12.96939098 2.76166434 -10.25 0.625 C-6.73153747 -0.3523507 -3.5623791 -0.78133965 0 0 Z " fill="#4A4A49" transform="translate(965,552)"/>
<path d="M0 0 C2.97 0 5.94 0 9 0 C9 5.94 9 11.88 9 18 C14.61 18 20.22 18 26 18 C26 12.06 26 6.12 26 0 C29.3 0 32.6 0 36 0 C36 15.18 36 30.36 36 46 C32.7 46 29.4 46 26 46 C26 39.4 26 32.8 26 26 C20.39 26 14.78 26 9 26 C9 32.6 9 39.2 9 46 C6.03 46 3.06 46 0 46 C0 30.82 0 15.64 0 0 Z " fill="#AAD7EA" transform="translate(923,468)"/>
<path d="M0 0 C4.28214476 4.0625476 7.55062241 7.41419794 7.75 13.4375 C7.64318677 19.487013 5.78950721 23.60220177 1.84765625 28.14453125 C-3.13983912 32.64698479 -7.91254958 33.16006416 -14.49609375 32.83203125 C-20.24878275 31.85737184 -23.02046139 29.30222724 -26.5 24.8125 C-28.51647562 18.16999208 -28.81002383 11.15685433 -26 4.75 C-18.80352915 -2.44647085 -9.48717139 -4.49392329 0 0 Z " fill="#ABD8E5" transform="translate(1151.5625,481.6875)"/>
<path d="M0 0 C1.2375 1.11375 1.2375 1.11375 2.5 2.25 C3.263125 2.930625 4.02625 3.61125 4.8125 4.3125 C8.22868036 8.23478115 7.77335492 12.65280661 7.71484375 17.59375 C7.24797946 23.36589034 3.58243589 26.4737468 -0.5 30.25 C-5.38341595 33.50561063 -10.79164255 32.81942975 -16.5 32.25 C-21.00665768 30.11526742 -23.6741532 27.33177871 -26.5 23.25 C-28.1728747 18.23137589 -28.53347349 12.97039882 -26.62890625 7.95703125 C-20.99379056 -1.89056437 -10.28164053 -5.14082027 0 0 Z " fill="#AAD9E6" transform="translate(1065.5,481.75)"/>
<path d="M0 0 C2.52557944 1.39612777 4.32719606 2.54892337 5.63671875 5.16796875 C5.7221577 7.27325808 5.743866 9.38128032 5.734375 11.48828125 C5.73115234 12.74511719 5.72792969 14.00195312 5.72460938 15.296875 C5.71623047 16.61558594 5.70785156 17.93429687 5.69921875 19.29296875 C5.69420364 20.63281086 5.68964076 21.97265475 5.68554688 23.3125 C5.67372961 26.59770081 5.65725492 29.88281272 5.63671875 33.16796875 C3.32671875 33.16796875 1.01671875 33.16796875 -1.36328125 33.16796875 C-1.36328125 32.50796875 -1.36328125 31.84796875 -1.36328125 31.16796875 C-2.56984375 31.66296875 -2.56984375 31.66296875 -3.80078125 32.16796875 C-8.09911212 33.37451777 -11.93207515 33.8534592 -16.36328125 33.16796875 C-19.23357994 31.37403207 -20.85459763 30.18533599 -22.36328125 27.16796875 C-22.77641218 24.11079986 -22.85710282 21.21772397 -22.36328125 18.16796875 C-19.77126532 15.36578936 -17.96441624 14.36834708 -14.36328125 13.16796875 C-12.46857309 13.09941925 -10.57159785 13.08316503 -8.67578125 13.10546875 C-7.68191406 13.11449219 -6.68804688 13.12351562 -5.6640625 13.1328125 C-4.52517578 13.15021484 -4.52517578 13.15021484 -3.36328125 13.16796875 C-3.69328125 11.51796875 -4.02328125 9.86796875 -4.36328125 8.16796875 C-10.14919636 8.06319363 -15.65637491 8.1754633 -21.36328125 9.16796875 C-21.36328125 6.85796875 -21.36328125 4.54796875 -21.36328125 2.16796875 C-15.26402893 -2.0143757 -6.93509281 -2.44161119 0 0 Z " fill="#A8D9E7" transform="translate(989.36328125,480.83203125)"/>
<path d="M0 0 C3.32255304 2.07500439 6.23284064 4.46568128 8 8 C8.68128376 14.81283762 8.68128376 14.81283762 6.953125 17.82421875 C5.17156722 19.98828747 3.52390368 21.73804816 1 23 C0.97494385 23.56509277 0.9498877 24.13018555 0.92407227 24.71240234 C0.80820044 27.26683742 0.68543463 29.8208955 0.5625 32.375 C0.52318359 33.26445313 0.48386719 34.15390625 0.44335938 35.0703125 C0.40146484 35.92109375 0.35957031 36.771875 0.31640625 37.6484375 C0.27974854 38.43395996 0.24309082 39.21948242 0.20532227 40.02880859 C0 42 0 42 -1 44 C-2.32 44 -3.64 44 -5 44 C-5.33 37.4 -5.66 30.8 -6 24 C-7.98 23.01 -9.96 22.02 -12 21 C-14.78945399 17.77010591 -15.89519026 15.7336682 -16.5 11.5 C-15.82009988 6.74069914 -14.05295527 3.61303628 -10.25 0.625 C-6.73153747 -0.3523507 -3.5623791 -0.78133965 0 0 Z " fill="#243B38" transform="translate(965,552)"/>
<path d="M0 0 C2.70048166 1.26285573 4.87916454 2.87916454 7 5 C7.04092937 7.33297433 7.04241723 9.66705225 7 12 C4.03824877 11.38722388 2.61941217 10.74627478 0 9 C-2.95746492 8.41654524 -2.95746492 8.41654524 -6 9 C-8.8778494 11.57491789 -9.87914292 13.17126574 -10.4375 17 C-9.92591705 20.50799736 -9.40224964 22.36527459 -7 25 C-1.93249909 25.75074088 0.84462984 24.84939668 5 22 C5.66 22 6.32 22 7 22 C7.29238457 24.92384568 7.49482153 27.15069801 7 30 C3.61882304 33.65532644 0.36528172 34.32069152 -4.4375 34.625 C-9.42795611 34.43488739 -12.16089127 33.26703272 -15.62890625 29.69921875 C-19.34176488 25.09781276 -20.57940465 21.13714015 -20.34375 15.3046875 C-19.52207003 9.7956968 -17.09911061 5.54891483 -12.8125 2 C-8.69876914 -0.60418585 -4.73242061 -0.96194394 0 0 Z " fill="#ADD8E5" transform="translate(1183,480)"/>
<path d="M0 0 C11 0 11 0 14.5625 2.3125 C19.49683183 7.75291715 19.47920072 11.44516677 19.390625 18.59765625 C18.83972768 23.39597191 17.65198842 24.94252132 14 28 C11 30 11 30 0 30 C0 20.1 0 10.2 0 0 Z " fill="#F9FDFD" transform="translate(1090,476)"/>
<path d="M0 0 C2.97 0 5.94 0 9 0 C9 16.5 9 33 9 50 C6.03 50 3.06 50 0 50 C0 33.5 0 17 0 0 Z " fill="#ABD6EA" transform="translate(1022,464)"/>
<path d="M0 0 C2.97 0 5.94 0 9 0 C9 16.5 9 33 9 50 C6.03 50 3.06 50 0 50 C0 33.5 0 17 0 0 Z " fill="#AED6E8" transform="translate(1004,464)"/>
<path d="M0 0 C3 1 3 1 4.32421875 3.37109375 C4.77410156 4.38300781 5.22398437 5.39492188 5.6875 6.4375 C13.69943804 23.09441809 26.8825896 33.00122822 44.01171875 39.06640625 C45.64224787 39.54332978 47.28008564 39.99634425 48.92578125 40.41796875 C51 41 51 41 54.25 42.625 C60.01420948 44.73854348 65.90351276 44.75478761 72 45 C72 45.66 72 46.32 72 47 C50.32735728 47.56409041 32.63737506 45.3313262 15.6015625 30.58203125 C8.53853292 23.57202742 0.9264348 14.63063088 -2 5 C-1.48553719 1.48553719 -1.48553719 1.48553719 0 0 Z " fill="#433F41" transform="translate(832,610)"/>
<path d="M0 0 C13.11921472 1.04120752 23.0069152 5.23017497 32.171875 14.828125 C39.76390689 23.84771844 40.29433382 32.10531315 39.546875 43.4609375 C39 46 39 46 36 48 C35.97421875 47.18917969 35.9484375 46.37835938 35.921875 45.54296875 C35.30691903 33.5373511 32.62315843 23.72874813 24 15 C17.08678496 9.35655915 8.75033904 6.93088713 0 6 C0 4.02 0 2.04 0 0 Z " fill="#464446" transform="translate(864,434)"/>
<path d="M0 0 C3.875 0.5625 3.875 0.5625 5.58984375 1.7578125 C8.21910797 5.44997076 7.43655361 10.25080105 6.875 14.5625 C5.375 17.25 5.375 17.25 2.875 18.5625 C0.06028434 19.15082172 -2.31797371 19.21823975 -5.125 18.5625 C-8.34768106 15.90378812 -9.0149365 14.23511029 -9.6875 10.125 C-8.76838841 4.30395994 -6.16759278 0.25034509 0 0 Z " fill="#F7FDFD" transform="translate(1056.125,487.4375)"/>
<path d="M0 0 C2.4375 1.375 2.4375 1.375 4 4 C4.74135651 8.6009961 4.84195873 12.52657222 2.5 16.625 C-1.04624011 18.57543206 -4.04922572 18.92292678 -8 18 C-11.27228507 15.30036482 -11.91223955 13.70208359 -12.4375 9.5 C-11.97918775 5.83350202 -11.22769177 3.91313539 -9 1 C-5.90826248 -0.54586876 -3.40570448 -0.29359521 0 0 Z " fill="#F7FDFD" transform="translate(1145,488)"/>
<path d="M0 0 C3.4375 0.875 3.4375 0.875 6.4375 2.875 C6.80500064 6.24375585 7.01725504 8.75172462 5.4375 11.8125 C2.1998527 13.53250013 -0.99042027 13.54476495 -4.5625 12.875 C-7.01886081 10.80244557 -7.45114581 9.51130966 -8 6.375 C-7.5625 3.875 -7.5625 3.875 -6 1.5 C-3.5625 -0.125 -3.5625 -0.125 0 0 Z " fill="#9CD7CB" transform="translate(857.5625,431.125)"/>
<path d="M0 0 C1.9375 1.25 1.9375 1.25 3 3 C3.58649994 6.26764255 3.30408821 7.54994945 1.4375 10.3125 C-1.91326523 12.63226055 -4.01217855 12.58004676 -8 12 C-10.65016543 9.77728061 -10.94940209 8.3541854 -11.4375 4.9375 C-11 2 -11 2 -9.4375 0.0625 C-5.94083514 -1.46168725 -3.64685284 -0.92828981 0 0 Z " fill="#9AD7C8" transform="translate(801,432)"/>
<path d="M0 0 C0.33 0 0.66 0 1 0 C1.33 3.63 1.66 7.26 2 11 C2.66 10.67 3.32 10.34 4 10 C4 13.63 4 17.26 4 21 C4.99 21 5.98 21 7 21 C7.99 25.62 8.98 30.24 10 35 C8.35 35.99 6.7 36.98 5 38 C-1.32387004 27.05695532 -0.38092913 12.18973204 0 0 Z " fill="#514D50" transform="translate(824,575)"/>
<path d="M0 0 C2 2 2 2 2.375 5.4375 C2 9 2 9 0.375 10.9375 C-2.68887636 12.30818153 -4.67951884 12.49453975 -8 12 C-9.9375 10.375 -9.9375 10.375 -11 8 C-10.92897215 4.5196355 -10.61415498 2.70514091 -8.3125 0.0625 C-5.16096578 -1.38550221 -3.29050737 -0.929926 0 0 Z " fill="#8AD7BD" transform="translate(965,558)"/>
<path d="M0 0 C3.07536854 0.65900754 5.07735566 1.53867783 8 3 C8 11.25 8 19.5 8 28 C7.34 28 6.68 28 6 28 C5.67 24.7 5.34 21.4 5 18 C4.34 18.66 3.68 19.32 3 20 C2.95101562 19.10796875 2.90203125 18.2159375 2.8515625 17.296875 C2.77679687 16.12640625 2.70203125 14.9559375 2.625 13.75 C2.55539062 12.58984375 2.48578125 11.4296875 2.4140625 10.234375 C2.03084926 7.24097347 1.41066357 5.59195095 0 3 C0 2.01 0 1.02 0 0 Z " fill="#3F3C3D" transform="translate(822,568)"/>
<path d="M0 0 C6.6 0 13.2 0 20 0 C20 1.32 20 2.64 20 4 C5.21867882 4.18451025 5.21867882 4.18451025 -1 3 C-0.67 2.01 -0.34 1.02 0 0 Z " fill="#3D3C3B" transform="translate(833,518)"/>
<path d="M0 0 C2.37123246 0.23029956 4.74741943 0.41119942 7.125 0.5625 C8.40632812 0.64628906 9.68765625 0.73007812 11.0078125 0.81640625 C12.48894531 0.90728516 12.48894531 0.90728516 14 1 C14 1.66 14 2.32 14 3 C10.4375173 3.02913821 6.87506546 3.04684529 3.3125 3.0625 C1.80139648 3.07506836 1.80139648 3.07506836 0.25976562 3.08789062 C-0.71669922 3.09111328 -1.69316406 3.09433594 -2.69921875 3.09765625 C-4.04246216 3.10551147 -4.04246216 3.10551147 -5.4128418 3.11352539 C-8.03641759 2.99840198 -10.44293053 2.58234285 -13 2 C-13 1.34 -13 0.68 -13 0 C-8.36084644 -2.31957678 -4.67927393 -2.33963696 0 0 Z " fill="#332F31" transform="translate(890,654)"/>
<path d="M0 0 C1.23556641 0.01740234 1.23556641 0.01740234 2.49609375 0.03515625 C3.32238281 0.04417969 4.14867187 0.05320312 5 0.0625 C5.63808594 0.07410156 6.27617188 0.08570313 6.93359375 0.09765625 C6.93359375 1.41765625 6.93359375 2.73765625 6.93359375 4.09765625 C4.93359375 6.09765625 4.93359375 6.09765625 2.98828125 6.29296875 C0.97005208 6.22786458 -1.04817708 6.16276042 -3.06640625 6.09765625 C-3.10912725 4.4315372 -3.10704457 2.7638274 -3.06640625 1.09765625 C-2.06640625 0.09765625 -2.06640625 0.09765625 0 0 Z " fill="#F4F9FA" transform="translate(979.06640625,499.90234375)"/>
<path d="M0 0 C1.485 0.99 1.485 0.99 3 2 C3.3984375 4.53125 3.3984375 4.53125 3.375 7.5 C3.38273438 8.4796875 3.39046875 9.459375 3.3984375 10.46875 C3.26695312 11.3040625 3.13546875 12.139375 3 13 C2.01 13.66 1.02 14.32 0 15 C0 10.05 0 5.1 0 0 Z " fill="#363231" transform="translate(900,467)"/>
<path d="M0 0 C5.61 0 11.22 0 17 0 C17 0.33 17 0.66 17 1 C11.7081426 3.01594567 7.56730524 3.89297574 2.125 2 C1.42375 1.67 0.7225 1.34 0 1 C0 0.67 0 0.34 0 0 Z " fill="#555456" transform="translate(885,652)"/>
<path d="M0 0 C4.455 0.99 4.455 0.99 9 2 C7 5 7 5 4.8359375 5.51171875 C4.02382813 5.56972656 3.21171875 5.62773438 2.375 5.6875 C1.14910156 5.78611328 1.14910156 5.78611328 -0.1015625 5.88671875 C-0.72804688 5.92410156 -1.35453125 5.96148438 -2 6 C-2 5.34 -2 4.68 -2 4 C-0.02 3.67 1.96 3.34 4 3 C2.68 2.67 1.36 2.34 0 2 C0 1.34 0 0.68 0 0 Z " fill="#4D4B4B" transform="translate(874,649)"/>
<path d="M0 0 C1.67542976 0.28604898 3.34385343 0.61781233 5 1 C4.67 2.65 4.34 4.3 4 6 C2.68 5.67 1.36 5.34 0 5 C-0.5625 3.0625 -0.5625 3.0625 -1 1 C-0.67 0.67 -0.34 0.34 0 0 Z " fill="#514B4D" transform="translate(773,526)"/>
<path d="M0 0 C0.99 0.33 1.98 0.66 3 1 C1.88121617 2.17262904 0.75476949 3.33795138 -0.375 4.5 C-1.00148438 5.1496875 -1.62796875 5.799375 -2.2734375 6.46875 C-4 8 -4 8 -6 8 C-4.75237172 4.15314615 -3.6129609 1.97070595 0 0 Z " fill="#AACDDA" transform="translate(1046,482)"/>
<path d="M0 0 C-2 2 -2 2 -5.625 2.125 C-6.73875 2.08375 -7.8525 2.0425 -9 2 C-8.67 1.34 -8.34 0.68 -8 0 C-4.71585695 -0.95067299 -3.30306592 -1.10102197 0 0 Z " fill="#393738" transform="translate(905,653)"/>
</svg>
